<?xml version="1.0" standalone="no"?>
<!DOCTYPE svg PUBLIC "-//W3C//DTD SVG 20010904//EN"
 "http://www.w3.org/TR/2001/REC-SVG-20010904/DTD/svg10.dtd">
<svg version="1.0" xmlns="http://www.w3.org/2000/svg"
 width="456.000000pt" height="449.000000pt" viewBox="0 0 456.000000 449.000000"
 preserveAspectRatio="xMidYMid meet">

<g transform="translate(0.000000,449.000000) scale(0.100000,-0.100000)"
fill="#000000" stroke="none">
<path d="M1999 2273 c-2 -6 -151 -160 -331 -342 -374 -379 -381 -388 -387
-528 -3 -70 0 -89 22 -136 35 -76 88 -132 163 -168 60 -30 69 -31 151 -27 129
6 152 22 421 284 183 178 232 220 242 211 10 -10 12 -8 7 5 -7 20 20 51 35 42
7 -4 8 -2 4 4 -9 15 51 75 66 66 6 -4 8 -3 5 3 -4 5 5 20 18 31 14 12 25 26
25 30 0 5 10 14 23 20 12 6 16 11 9 11 -7 1 -29 -7 -50 -18 -224 -112 -482 45
-482 294 0 68 25 152 55 186 10 10 15 24 13 31 -3 9 -6 10 -9 1z"/>
<path d="M2657 1962 c-60 -60 -85 -94 -57 -77 12 7 14 -8 3 -19 -5 -4 -8 -40
-9 -79 0 -40 -2 -177 -3 -306 l-3 -233 63 -65 c41 -40 88 -76 129 -96 57 -28
75 -32 145 -32 71 0 89 4 147 33 68 33 116 81 154 152 15 27 19 57 19 135 0
150 -4 156 -279 427 -127 125 -233 228 -236 228 -3 0 -36 -30 -73 -68z"/>
<path d="M2530 1789 c0 -5 5 -7 10 -4 6 3 10 8 10 11 0 2 -4 4 -10 4 -5 0 -10
-5 -10 -11z"/>
<path d="M2571 1704 c0 -11 3 -14 6 -6 3 7 2 16 -1 19 -3 4 -6 -2 -5 -13z"/>
<path d="M2320 1526 c0 -2 7 -9 15 -16 9 -7 15 -8 15 -2 0 5 -7 12 -15 16 -8
3 -15 4 -15 2z"/>
<path d="M2447 1399 c7 -7 15 -10 18 -7 3 3 -2 9 -12 12 -14 6 -15 5 -6 -5z"/>
<path d="M2545 1341 c4 -8 2 -17 -6 -22 -9 -6 -10 -9 -2 -9 19 0 27 21 13 33
-10 9 -11 9 -5 -2z"/>
<path d="M1005 1191 c-56 -15 -132 -60 -165 -97 -58 -66 -84 -138 -84 -226 1
-135 72 -242 200 -300 116 -52 280 -16 366 81 64 72 82 121 83 221 0 73 -4 93
-28 141 -32 66 -100 132 -163 160 -49 22 -162 33 -209 20z"/>
<path d="M3388 1180 c-100 -17 -191 -89 -240 -189 -19 -37 -23 -63 -23 -136 0
-84 2 -94 36 -155 65 -119 170 -176 308 -168 93 6 158 36 218 101 50 54 66 85
83 155 52 223 -151 431 -382 392z"/>
</g>
</svg>
